<svg xmlns="http://www.w3.org/2000/svg" width="84.33" height="117.49" viewBox="0 0 1.50526 2.09705" shape-rendering="geometricPrecision" image-rendering="optimizeQuality" fill-rule="evenodd" clip-rule="evenodd" xmlns:xlink="http://www.w3.org/1999/xlink"><defs><linearGradient id="b" gradientUnits="userSpaceOnUse" x1=".122" y1="1.01" x2="1.162" y2="-.034"><stop stop-color="#fdb813"/><stop offset="1" stop-color="#fdb813"/></linearGradient><linearGradient id="a" gradientUnits="userSpaceOnUse" x1=".561" y1="1.298" x2="1.237" y2=".284"><stop stop-color="#f7941e"/><stop offset=".6" stop-color="#fb4a0f"/><stop offset="1" stop-color="#fb4a0f"/></linearGradient></defs><path d="M.986 1L.974.895c.038.007.076.036.11.05.032.014.06.014.078.032.052.052.08.028.136-.006.064-.04.038-.08.028-.134C1.32.8 1.224.692 1.212.643 1.2.595 1.235.576 1.192.528c-.006-.006.045.003.04-.052-.005.006-.014 0-.024.005 0-.008.018-.032-.002-.044-.02.046-.07.02-.075.013.007-.013.03-.057.02-.137-.025.034-.05.048-.074.072-.025-.006-.073 0-.103.002A.14.14 0 0 0 .907.3C.873.35.87.408.847.457.76.624.566.866.434 1l.163.275h.55L.985 1" fill="url(#a)"/><path d="M0 1.475a.326.326 0 0 1 .057-.008l.06-.002c.02 0 .043.002.065.006a.174.174 0 0 1 .06.024c.018.01.033.026.044.046.01.02.017.044.017.074s-.005.054-.016.075a.158.158 0 0 1-.042.05.163.163 0 0 1-.06.026.274.274 0 0 1-.07.008H.058v.184H0v-.48m.12.04H.083c-.01 0-.02 0-.026.002v.2c.002 0 .006.003.01.003h.045c.016 0 .03 0 .047-.005a.126.126 0 0 0 .04-.016.087.087 0 0 0 .03-.033.112.112 0 0 0 .012-.056.093.093 0 0 0-.01-.047.08.08 0 0 0-.03-.03.11.11 0 0 0-.04-.016.228.228 0 0 0-.043-.004m.24.267c0-.056.014-.1.043-.133.03-.033.07-.05.125-.05a.19.19 0 0 1 .075.015c.02.01.038.022.052.038a.157.157 0 0 1 .03.057c.008.022.002.046.002.07a.247.247 0 0 1-.01.076.147.147 0 0 1-.087.093.18.18 0 0 1-.072.012.19.19 0 0 1-.075-.014.147.147 0 0 1-.084-.095C.35 1.83.357 1.807.357 1.783m.057 0c0 .015.002.03.006.047.005.016.002.03.02.044a.1.1 0 0 0 .034.03c.014.01.03.013.052.013.037 0 .065-.01.083-.034.018-.023.027-.056.027-.1a.2.2 0 0 0-.006-.05c-.003-.016 0-.03-.018-.043a.103.103 0 0 0-.087-.043c-.037 0-.065.01-.083.034a.16.16 0 0 0-.028.102m.383-.052v-.016-.02a.08.08 0 0 0-.002-.022c0-.007 0-.013-.002-.018H.747V1.61H.84l.006.055H.85a.13.13 0 0 1 .044-.044c0-.005.02-.01.034-.014a.127.127 0 0 1 .04-.006c.02 0 .04.002.055.007a.09.09 0 0 1 .04.025.12.12 0 0 1 .026.048.28.28 0 0 1 .007.077v.2h-.054v-.19a.16.16 0 0 0-.02-.086c-.01-.018-.034-.028-.067-.028a.084.084 0 0 0-.035.007.123.123 0 0 0-.054.045c-.007 0-.012.02-.015.033v.217H.8V1.73m.54.172h.025l.086-.293h.055l-.096.31c-.006.016-.002.034-.017.055a.227.227 0 0 1-.023.058c0 .018-.023.033-.04.046a.11.11 0 0 1-.083.016c-.007 0-.013-.003-.02-.005-.006 0-.012-.004-.018-.006-.007-.003-.002-.006-.013-.008l.02-.05.01.007c.005.002 0 .004.016.006.006 0 .01.002.017.003.006 0 0 .002.014.002.035 0 .058-.03.07-.088H1.3l-.146-.346h.062l.12.294" fill-rule="nonzero"/><path fill="#fdb813" d="M.258.82L.436 1 .548.728z"/><path fill="#faa61a" d="M.562 1.37l.17-.023.142-.07L.436 1l.04.187z"/><path fill="#f36f21" d="M1.295 1.37l-.13-.183L.984 1l-.11.278.223.07z"/><path fill="#fff200" d="M.127.636l.11.184.2.18z" id="c"/><path fill="#fff200" d="M.562 1.37L.436 1l.017.187z"/><path fill="#f4813c" d="M.562 1.37h.183l.13-.092z"/><path fill="#f7941e" d="M1.295 1.37l-.42-.092.237.092z"/><g fill="#f15922"><path d="M1.295 1.37l-.108-.183L.987 1zM.986 1L.98.948z"/></g><path d="M.436 1L.232.81.12.62C.158.546.26.492.33.485c-.184.18.086.242.186.112C.562.537.502.477.4.563.474.37.683.487.71.383.724.33.646.332.597.368.592.293.62.29.67.223.527.054.83-.034.93.032c-.14.09.1.286.126-.036.11.142.05.286.02.347L1.065.35a.39.39 0 0 0-.068 0A.17.17 0 0 0 .92.27H.898L.882.29C.848.34.845.387.824.438L.818.45C.768.548.698.647.63.733.58.798.528.863.47.923l-.034.086" fill="url(#b)"/><use xlink:href="#c"/></svg>