<svg viewBox="0 0 227.8 255.8" xmlns="http://www.w3.org/2000/svg" xmlns:xlink="http://www.w3.org/1999/xlink"><linearGradient id="a" gradientTransform="matrix(15.81 0 0 -15.81 8122 8965.37)" gradientUnits="userSpaceOnUse" x1="-505.43" x2="-499.99" y1="552.59" y2="561.61"><stop offset="0" stop-color="#f7941e"/><stop offset=".6" stop-color="#fb4a0f"/><stop offset="1" stop-color="#f00"/></linearGradient><linearGradient id="b" gradientTransform="matrix(15.81 0 0 -15.81 8122 8965.37)" gradientUnits="userSpaceOnUse" x1="-510.66" x2="-503.28" y1="557.64" y2="565.46"><stop offset="0" stop-color="#fdb813"/><stop offset="1" stop-color="#ff0"/></linearGradient><g fill-rule="evenodd" transform="translate(-13.17 -.1)"><path d="m175 187.34-2.31-19.61c7.09 1.36 14.14 6.77 20.27 9.44s11.36 2.65 14.76 6c9.67 9.72 15.13 5.22 25.46-1.16 12-7.38 7.11-15.15 5.26-25.2-1.18-6.44-19-26.91-21.19-36s4.27-12.49-3.92-21.46c-.95-1.07 8.59.64 7.7-9.71a3.46 3.46 0 0 1 -4.58.87c1.89-1.58 3.38-6.07-.37-8.44-3.7 8.7-13.12 3.56-14.07 2.42 1.11-2.29 5.42-10.53 3.79-25.38-4.8 6.33-9.77 8.94-14 13.41-4.58-1.11-13.59-.11-19.13.28-.79-5.37-7.27-13.91-12.33-16-6.34 9.2-6.88 19.85-11.44 28.97-15.62 31.31-52.1 76.49-76.69 101.68l30.43 51.37h102.78l-30.42-51.39" fill="url(#a)"/><path d="m39.07 153.09 33.16 34.25 20.92-51.34z" fill="#fdb813"/><path d="m95.68 255.9 31.78-4.35 26.65-12.89-81.82-51.32 7.51 34.24z" fill="#faa61a"/><path d="m232.69 255.9-24.59-34.32-33.1-34.24-21 51.32 42 12.89z" fill="#f36f21"/><path d="m14.51 118.84 20.29 34.25 37.43 34.25zm81.17 137.06-23.45-68.56 3.16 34.24z" fill="#fff200"/><path d="m95.68 255.9h34.26l24.06-17.24z" fill="#f4813c"/><path d="m232.69 255.9-78.69-17.24 44.44 17.24z" fill="#f7941e"/><path d="m232.69 255.9-20.32-34.32-37.37-34.24zm-57.69-68.56-1-10.34z" fill="#f15922"/><path d="m72.2 187.3-38-35.65-21-34.9c7.09-14.23 25.8-24.16 39.07-25.51-34.15 33.37 16.18 45.23 34.95 20.88 8.49-11-2.64-22.54-21.41-6.33 13.44-36.21 52.58-14.23 57.67-33.79 2.53-9.75-12-9-21.11-2.32-.9-14 4.11-15 13.83-27.15-27-31.94 29.3-48.23 47.91-35.74-25.94 16.83 18.77 53.35 23.44-6.69 20.79 26.57 9.45 53.4 3.45 64.75l-1.32 1.15a78.46 78.46 0 0 0 -12.73.31c-3-6.32-8.85-13-14.34-15.18l-4.55-1.8-2.8 4c-6.28 9-6.88 17.71-10.78 27.29-.32.79-.68 1.58-1.06 2.34-9.17 18.25-22.46 36.65-34.95 52.81q-14.2 18.46-29.84 35.74l-6.48 15.81" fill="url(#b)"/><path d="m14.51 118.84 20.29 34.25 37.43 34.23z" fill="#fff200"/></g></svg>