<svg xmlns="http://www.w3.org/2000/svg" width="281" height="392" viewBox="0 0 17.7713 24.7573" shape-rendering="geometricPrecision" image-rendering="optimizeQuality" fill-rule="evenodd" clip-rule="evenodd"><defs><linearGradient id="a" gradientUnits="userSpaceOnUse" x1="7.898" y1="13.854" x2="13.334" y2="4.827"><stop stop-color="#f7941e"/><stop offset=".6" stop-color="#fb4a0f"/><stop offset="1" stop-color="red"/></linearGradient><linearGradient id="c" gradientUnits="userSpaceOnUse" x1="3.892" y1="9.648" x2="11.276" y2="1.824"><stop stop-color="#fdb813"/><stop offset="1" stop-color="#ff0"/></linearGradient><radialGradient id="b" gradientUnits="userSpaceOnUse" cx="10.485" cy="13.562" r="10.228"><stop stop-color="red"/><stop offset=".6" stop-color="#7f0000"/><stop offset="1"/></radialGradient></defs><path d="M11.644 11.844l-.146-1.24c.448.086.894.428 1.282.597.388.17.718.168.933.38.612.615.957.33 1.61-.073.76-.467.45-.958.333-1.594-.075-.407-1.202-1.702-1.34-2.274-.137-.57.27-.79-.248-1.357-.06-.068.543.04.487-.614a.22.22 0 0 1-.29.055c.12-.1.214-.384-.023-.534-.234.55-.83.225-.89.153.07-.145.343-.666.24-1.605-.304.4-.618.565-.886.848-.29-.07-.86-.007-1.21.018-.05-.34-.46-.88-.78-1.01-.4.578-.432 1.25-.72 1.827-.988 1.98-3.295 4.837-4.85 6.43L7.07 15.1h6.5l-1.924-3.25" fill="url(#a)"/><path d="M0 17.416c.207-.05.43-.082.67-.098.24-.016.477-.025.71-.025.252 0 .506.025.765.074.26.05.495.14.707.27.213.13.386.31.52.54.133.23.2.52.2.875 0 .35-.064.643-.19.883a1.62 1.62 0 0 1-.498.584 2.01 2.01 0 0 1-.71.32 3.478 3.478 0 0 1-.827.1h-.135c-.063 0-.128 0-.196-.007a6.15 6.15 0 0 1-.2-.012 1.44 1.44 0 0 1-.14-.015v2.174H0v-5.665m1.397.466c-.142 0-.278.004-.41.01-.13.005-.233.02-.31.04v2.37a.41.41 0 0 0 .13.02l.19.01.187.004h.13c.186 0 .37-.018.553-.053.183-.034.347-.1.495-.19a1.02 1.02 0 0 0 .356-.393c.09-.17.135-.384.135-.646 0-.222-.042-.41-.127-.56a1.01 1.01 0 0 0-.335-.36 1.41 1.41 0 0 0-.47-.19 2.45 2.45 0 0 0-.52-.058m2.83 3.155c0-.66.17-1.18.514-1.565.344-.384.835-.576 1.472-.576.343 0 .64.056.887.168a1.736 1.736 0 0 1 .98 1.132c.08.262.12.542.12.842 0 .324-.044.62-.13.884a1.702 1.702 0 0 1-1.01 1.103c-.248.1-.53.15-.846.15a2.15 2.15 0 0 1-.883-.168 1.725 1.725 0 0 1-.984-1.133 2.9 2.9 0 0 1-.12-.842m.68 0c0 .19.022.382.07.572.045.19.12.362.224.515.105.152.24.274.406.367.166.094.37.14.61.14.435 0 .763-.135.984-.405.22-.27.33-.666.33-1.19 0-.195-.023-.387-.07-.575a1.526 1.526 0 0 0-.23-.51 1.207 1.207 0 0 0-.408-.37 1.23 1.23 0 0 0-.61-.138c-.435 0-.762.133-.98.4-.218.267-.327.665-.327 1.193m4.52-.613c0-.05 0-.113-.005-.192a11.44 11.44 0 0 0-.032-.492 2.58 2.58 0 0 0-.03-.214h-.547v-.53H9.91l.075.66h.04c.056-.092.128-.183.218-.273a1.672 1.672 0 0 1 1.182-.486c.25 0 .473.027.666.082.194.054.355.15.483.29.128.138.225.326.29.563.065.235.098.536.098.9v2.347h-.637v-2.224c0-.452-.074-.793-.22-1.022-.148-.23-.415-.342-.802-.342-.14 0-.28.03-.412.084a1.403 1.403 0 0 0-.365.224 1.58 1.58 0 0 0-.284.322 1.352 1.352 0 0 0-.18.388v2.567h-.63V20.42m6.36 2.027h.312l1.014-3.458h.663l-1.137 3.67c-.06.19-.12.404-.185.65a3 3 0 0 1-.267.68c-.114.213-.27.392-.466.54-.195.147-.45.22-.767.22-.07 0-.147-.007-.226-.023a2.277 2.277 0 0 1-.23-.06 1.577 1.577 0 0 1-.214-.088.582.582 0 0 1-.148-.1l.23-.59a.664.664 0 0 0 .134.083c.056.027.12.05.187.07.066.02.133.035.2.05a.87.87 0 0 0 .162.02c.41 0 .688-.347.835-1.04h-.547l-1.717-4.086h.736l1.43 3.458" fill="url(#b)" fill-rule="nonzero"/><path fill="#fdb813" d="M3.05 9.678l2.097 2.166 1.323-3.25z"/><path fill="#faa61a" d="M6.63 16.18l2.01-.275 1.685-.815-5.174-3.246.475 2.166z"/><path fill="#f36f21" d="M15.295 16.18l-1.555-2.17-2.095-2.166-1.324 3.246 2.65.815z"/><path d="M1.497 7.512L2.78 9.678l2.367 2.166zM6.63 16.18l-1.483-4.336.2 2.166z" fill="#fff200"/><path fill="#f4813c" d="M6.63 16.18h2.167l1.524-1.09z"/><path fill="#f7941e" d="M15.295 16.18l-4.974-1.09 2.81 1.09z"/><path d="M15.295 16.18l-1.285-2.17-2.365-2.166zm-3.65-4.336l-.06-.653z" fill="#f15922"/><path d="M5.145 11.842L2.74 9.587 1.412 7.38c.45-.9 1.636-1.528 2.473-1.613-2.16 2.11 1.023 2.86 2.21 1.32.537-.697-.167-1.425-1.354-.4.85-2.29 3.325-.9 3.647-2.14.16-.617-.76-.57-1.335-.147-.057-.888.26-.95.875-1.717-1.71-2.02 1.853-3.05 3.03-2.26C9.317 1.49 12.145 3.8 12.44.003c1.315 1.68.6 3.377.22 4.095a5.424 5.424 0 0 0-.085.073 4.953 4.953 0 0 0-.805.02c-.19-.4-.56-.82-.907-.96l-.288-.114-.177.256c-.397.57-.435 1.12-.682 1.726-.02.05-.043.1-.067.148-.58 1.154-1.42 2.318-2.21 3.34a37.216 37.216 0 0 1-1.887 2.26l-.41 1" fill="url(#c)"/><path fill="#fff200" d="M1.497 7.512L2.78 9.678l2.367 2.165z"/></svg>