<svg xmlns="http://www.w3.org/2000/svg" width="211.06" height="78.52" viewBox="0 0 59.5654 22.1612" shape-rendering="geometricPrecision" image-rendering="optimizeQuality" fill-rule="evenodd" clip-rule="evenodd" xmlns:xlink="http://www.w3.org/1999/xlink"><defs><linearGradient id="c" gradientUnits="userSpaceOnUse" x1=".043" y1="15.903" x2="16.485" y2="-.538"><stop stop-color="#fdb813"/><stop offset="1" stop-color="#fdb813"/></linearGradient><linearGradient id="a" gradientUnits="userSpaceOnUse" y1="20.21" x2="0" y2="4.806"><stop stop-color="#f7941e"/><stop offset=".6" stop-color="#fb4a0f"/><stop offset="1" stop-color="#fb4a0f"/></linearGradient><linearGradient id="b" gradientUnits="userSpaceOnUse" x1="45.25" y1="15.679" x2="38.687" y2="13.866"><stop/><stop offset="1" stop-color="red"/></linearGradient></defs><path d="M13.702 15.862l-.195-1.66c.6.115 1.198.573 1.718.8.52.225.962.22 1.25.507.82.818 1.282.436 2.157-.102 1.016-.625.6-1.282.445-2.135-.1-.546-1.61-2.28-1.795-3.046-.184-.76.36-1.058-.332-1.816-.08-.088.728.056.653-.82-.072.098-.22.163-.387.075.16-.135.285-.514-.032-.715-.313.735-1.113.3-1.193.203.095-.194.462-.892.324-2.15-.407.535-.827.756-1.187 1.135-.39-.093-1.15 0-1.62.024-.07-.46-.617-1.18-1.045-1.355-.537.773-.58 1.675-.964 2.446-1.325 2.65-4.415 6.477-6.496 8.61l2.578 4.35h8.702l-2.58-4.35" fill="url(#a)"/><path d="M24.377 7.626a8.15 8.15 0 0 1 1.328-.194c.475-.032.944-.05 1.408-.05.496 0 1 .05 1.513.147.513.096.98.274 1.4.533.42.26.763.615 1.028 1.068.264.454.396 1.03.396 1.733 0 .69-.124 1.273-.372 1.748-.248.476-.578.862-.987 1.158-.41.296-.878.51-1.407.64a6.82 6.82 0 0 1-1.635.193h-.267a10.57 10.57 0 0 1-.785-.03c-.13-.012-.22-.023-.275-.033v4.305h-1.344V7.625m2.768.923c-.28 0-.55.005-.81.016-.258.01-.463.038-.614.08v4.695c.054.02.14.034.26.04l.37.015c.13.006.255.008.373.008h.26c.366 0 .73-.035 1.092-.105a2.81 2.81 0 0 0 .98-.38c.29-.184.525-.444.703-.778.178-.334.267-.76.267-1.28 0-.44-.084-.81-.25-1.108a1.994 1.994 0 0 0-.665-.712 2.78 2.78 0 0 0-.93-.38 4.806 4.806 0 0 0-1.037-.113m5.6 6.248c0-1.306.34-2.34 1.02-3.1.68-.76 1.65-1.14 2.913-1.14.68 0 1.265.11 1.756.33.49.222.9.522 1.222.9.324.377.564.825.72 1.343a5.75 5.75 0 0 1 .235 1.667c0 .647-.087 1.233-.26 1.756-.172.524-.426.97-.76 1.336a3.36 3.36 0 0 1-1.24.85c-.49.2-1.048.3-1.674.3-.67 0-1.252-.11-1.748-.333a3.414 3.414 0 0 1-1.23-.9 3.66 3.66 0 0 1-.72-1.342 5.755 5.755 0 0 1-.235-1.666m1.343 0c0 .378.046.755.138 1.133.092.378.24.718.445 1.02.204.302.47.545.8.73.33.182.73.274 1.206.274.863 0 1.513-.266 1.95-.8.437-.534.656-1.32.656-2.355 0-.39-.046-.77-.137-1.14a3.04 3.04 0 0 0-.453-1.013 2.38 2.38 0 0 0-.81-.728c-.328-.183-.73-.275-1.205-.275-.863 0-1.51.263-1.942.792-.432.53-.648 1.316-.648 2.363m8.95-1.214a12.644 12.644 0 0 0-.032-.865 15.2 15.2 0 0 0-.04-.494 5.11 5.11 0 0 0-.057-.42h-1.084v-1.052h2.17l.145 1.31h.08c.108-.182.25-.363.43-.54a3.275 3.275 0 0 1 2.34-.964c.495 0 .934.054 1.317.162.383.108.7.3.955.575.253.275.445.647.574 1.117.13.47.194 1.066.194 1.79v4.644h-1.263V14.44c0-.895-.145-1.57-.437-2.023-.29-.453-.82-.68-1.586-.68-.28 0-.553.057-.817.17a2.833 2.833 0 0 0-.72.445 3.073 3.073 0 0 0-.567.64c-.162.242-.28.498-.356.768v5.082h-1.246v-5.26m12.593 4.01h.616l2.01-6.847h1.31l-2.25 7.268c-.118.38-.24.808-.363 1.288-.124.48-.3.93-.526 1.35a3.24 3.24 0 0 1-.923 1.07c-.39.29-.896.436-1.522.436-.14 0-.29-.016-.445-.05a4.283 4.283 0 0 1-.46-.12 3.03 3.03 0 0 1-.422-.17 1.13 1.13 0 0 1-.29-.195l.452-1.167c.065.054.154.108.267.162.113.054.237.1.372.138.135.038.267.07.397.097.13.027.237.04.324.04.81 0 1.36-.685 1.65-2.056h-1.083l-3.4-8.093h1.458l2.832 6.848m-30.21 3.35h-.813v.717h-.228v-1.603h.23v.685h.812v-.685h.23v1.603h-.23v-.717m.62-.41c.14-.066.31-.1.512-.1.092 0 .166.013.22.037.057.023.1.054.13.09.032.037.052.078.062.122 0 .045.015.09.015.134 0 .085-.003.17-.01.254-.005.085-.008.177-.008.276 0 .058.003.114.008.168a.935.935 0 0 0 .026.15h-.154l-.057-.183h-.024a.636.636 0 0 1-.062.07.38.38 0 0 1-.087.063.56.56 0 0 1-.266.064.49.49 0 0 1-.155-.024.36.36 0 0 1-.122-.067.324.324 0 0 1-.11-.248c0-.068.014-.127.044-.178a.383.383 0 0 1 .116-.124.496.496 0 0 1 .162-.07.74.74 0 0 1 .18-.024 2.234 2.234 0 0 1 .202.008l.056.007.04.007c.004-.023.007-.043.008-.06.003-.017.003-.038.003-.064a.368.368 0 0 0-.014-.108.147.147 0 0 0-.046-.07.204.204 0 0 0-.084-.038.586.586 0 0 0-.224-.005.97.97 0 0 0-.302.09l-.057-.176m.717.582l-.04-.007a.473.473 0 0 0-.05-.006l-.074-.005a1.507 1.507 0 0 0-.104-.004.432.432 0 0 0-.226.05c-.056.035-.084.092-.084.173 0 .06.022.106.065.136.044.03.1.046.17.046a.42.42 0 0 0 .234-.067.284.284 0 0 0 .11-.134v-.182m.96-.07l-.432-.587h.268l.234.308.08.163.094-.162.243-.307h.24l-.44.578.235.31c.08.106.157.21.234.315h-.262l-.263-.34-.092-.173-.094.172-.267.34h-.243l.465-.615m1.947.517a.624.624 0 0 1-.2.095.896.896 0 0 1-.258.035.694.694 0 0 1-.262-.045.463.463 0 0 1-.182-.127.54.54 0 0 1-.105-.2.922.922 0 0 1-.034-.26c0-.206.052-.364.153-.473.102-.11.246-.164.434-.164.06 0 .12.007.18.02.06.013.112.037.16.073a.397.397 0 0 1 .115.147.57.57 0 0 1 .045.245 1.4 1.4 0 0 1-.01.18h-.86c.003.14.037.246.1.318.065.072.174.108.33.108a.512.512 0 0 0 .317-.112l.08.16m-.158-.625c.003-.12-.022-.207-.075-.258a.31.31 0 0 0-.22-.076.39.39 0 0 0-.254.076c-.063.05-.1.137-.11.26h.66m1.152.123c0-.1.013-.188.04-.267a.533.533 0 0 1 .114-.2.496.496 0 0 1 .184-.126.666.666 0 0 1 .25-.044.64.64 0 0 1 .256.048.506.506 0 0 1 .183.134c.05.057.085.124.11.202a.88.88 0 0 1 .034.253.794.794 0 0 1-.04.263.566.566 0 0 1-.116.2.492.492 0 0 1-.183.125.66.66 0 0 1-.245.043.647.647 0 0 1-.26-.048.494.494 0 0 1-.183-.133.564.564 0 0 1-.108-.2.84.84 0 0 1-.036-.252m.225 0c0 .057.006.112.02.166a.44.44 0 0 0 .062.144c.03.043.067.077.112.103.046.026.102.04.17.04.237 0 .356-.152.356-.455a.75.75 0 0 0-.02-.172.442.442 0 0 0-.062-.145.33.33 0 0 0-.11-.102.33.33 0 0 0-.165-.04c-.12 0-.21.04-.27.114-.063.076-.094.19-.094.345m1.286-.602h.142l.04.153h.022a.42.42 0 0 1 .16-.138.49.49 0 0 1 .222-.05c.174 0 .304.05.39.146.085.098.127.252.127.465 0 .1-.015.192-.044.274a.535.535 0 0 1-.314.34.682.682 0 0 1-.337.04.488.488 0 0 1-.134-.028 1.07 1.07 0 0 1-.065-.024v.483h-.21v-1.66m.537.145a.312.312 0 0 0-.215.07.397.397 0 0 0-.112.21v.554a.435.435 0 0 0 .272.077.36.36 0 0 0 .29-.122c.07-.08.106-.2.106-.362a.554.554 0 0 0-.078-.312c-.052-.077-.14-.116-.263-.116m1.883.96a.624.624 0 0 1-.2.095.896.896 0 0 1-.258.035.694.694 0 0 1-.262-.045.463.463 0 0 1-.182-.127.54.54 0 0 1-.105-.2.922.922 0 0 1-.034-.26c0-.206.05-.364.152-.473.102-.11.246-.164.434-.164.06 0 .12.007.18.02.06.013.112.037.16.073a.397.397 0 0 1 .115.147.57.57 0 0 1 .045.245 1.4 1.4 0 0 1-.01.18h-.86c.003.14.037.246.1.318.065.072.174.108.33.108a.512.512 0 0 0 .317-.112l.08.16m-.158-.625c.002-.12-.023-.207-.076-.258a.31.31 0 0 0-.22-.076.39.39 0 0 0-.255.076c-.064.05-.1.137-.11.26h.66m1.403.723v-.664a.544.544 0 0 0-.062-.288c-.04-.064-.113-.096-.22-.096a.37.37 0 0 0-.232.072.374.374 0 0 0-.13.184v.792h-.21v-1.202h.147l.04.16h.022a.55.55 0 0 1 .173-.14.545.545 0 0 1 .255-.055c.07 0 .132.008.185.024a.28.28 0 0 1 .134.086c.036.04.063.095.08.162.02.068.03.154.03.258v.708h-.212m.56-.76h.608v.197h-.61v-.196m1.865.678a.57.57 0 0 1-.188.086.882.882 0 0 1-.227.03.643.643 0 0 1-.258-.047.453.453 0 0 1-.27-.326 1.04 1.04 0 0 1-.03-.26c0-.202.05-.36.15-.47.098-.11.24-.166.424-.166a.877.877 0 0 1 .37.076l-.054.172a.63.63 0 0 0-.29-.068c-.25 0-.374.153-.374.458a.73.73 0 0 0 .02.17.43.43 0 0 0 .066.143.35.35 0 0 0 .302.14c.064 0 .12-.01.168-.026a.423.423 0 0 0 .12-.063l.07.155m.93-.92a1.247 1.247 0 0 0-.075-.022.29.29 0 0 0-.07-.01c-.08 0-.144.02-.19.063a.267.267 0 0 0-.083.156v.815h-.21v-1.202h.146l.04.16h.022a.43.43 0 0 1 .123-.14.296.296 0 0 1 .175-.048c.02 0 .047.002.076.006.028.004.057 0 .086.02l-.04.202m.178.403c0-.1.013-.188.04-.267a.533.533 0 0 1 .114-.2.496.496 0 0 1 .184-.125.665.665 0 0 1 .248-.044.64.64 0 0 1 .257.05.506.506 0 0 1 .183.133c.05.057.085.124.11.202a.88.88 0 0 1 .034.253.794.794 0 0 1-.04.263.566.566 0 0 1-.115.2.492.492 0 0 1-.184.126.66.66 0 0 1-.246.043.647.647 0 0 1-.26-.05.494.494 0 0 1-.183-.132.564.564 0 0 1-.108-.2.84.84 0 0 1-.037-.252m.224 0c0 .057.006.112.02.166a.44.44 0 0 0 .063.145c.03.043.066.077.112.103.046.026.102.04.17.04.237 0 .356-.152.356-.455a.81.81 0 0 0-.02-.172.442.442 0 0 0-.06-.145.32.32 0 0 0-.277-.14c-.118 0-.208.037-.27.112-.062.076-.093.19-.093.345m1.892.263a.127.127 0 0 0-.023-.077.203.203 0 0 0-.06-.052.418.418 0 0 0-.084-.038c-.032-.01-.066-.02-.1-.032-.045-.012-.09-.026-.135-.04a.44.44 0 0 1-.12-.06.304.304 0 0 1-.09-.097.3.3 0 0 1-.033-.15c0-.12.035-.208.106-.266a.46.46 0 0 1 .3-.087c.096 0 .177.01.243.028.066.018.123.038.172.06l-.05.178c-.042-.02-.09-.04-.15-.06a.595.595 0 0 0-.188-.028.3.3 0 0 0-.167.037c-.037.024-.055.07-.055.133a.1.1 0 0 0 .02.065.18.18 0 0 0 .056.046c.024.013.05.024.08.034.03 0 .063.02.097.03.046.01.092.025.137.042a.498.498 0 0 1 .126.064c.038.027.07.06.093.102.024.04.036.093.036.156a.358.358 0 0 1-.116.276c-.076.07-.19.107-.344.107-.098 0-.183 0-.255-.03a.892.892 0 0 1-.182-.07l.06-.182c.042.023.097.046.164.07a.624.624 0 0 0 .204.033.372.372 0 0 0 .185-.04c.048-.027.072-.077.072-.15m1.143 0a.127.127 0 0 0-.022-.077.203.203 0 0 0-.06-.052.418.418 0 0 0-.084-.038c-.032-.01-.066-.02-.1-.032-.045-.012-.09-.026-.135-.04a.44.44 0 0 1-.122-.06.304.304 0 0 1-.088-.097.3.3 0 0 1-.034-.15c0-.12.035-.208.106-.266a.46.46 0 0 1 .3-.087c.095 0 .176.01.242.028.066.018.123.038.172.06l-.05.178c-.042-.02-.09-.04-.15-.06a.595.595 0 0 0-.188-.028.3.3 0 0 0-.167.037c-.036.024-.054.07-.054.133a.1.1 0 0 0 .02.065.18.18 0 0 0 .056.046c.023.013.05.024.08.034.03 0 .062.02.096.03.046.01.092.025.137.042a.498.498 0 0 1 .126.064c.04.027.07.06.094.102.024.04.036.093.036.156a.358.358 0 0 1-.115.276c-.076.07-.19.107-.344.107-.097 0-.182 0-.254-.03a.892.892 0 0 1-.182-.07l.06-.182c.042.023.097.046.164.07a.624.624 0 0 0 .204.033.372.372 0 0 0 .184-.04c.048-.027.072-.077.072-.15m.48-.424h.61v.197h-.61v-.196m1.197.442c0 .063.012.107.035.133.024.025.056.038.095.038a.552.552 0 0 0 .153-.023l.028.156a.404.404 0 0 1-.055.018c-.02.005-.042 0-.065.015a.135.135 0 0 1-.07 0c-.022.003-.042.005-.06.005a.29.29 0 0 1-.198-.063c-.05-.042-.073-.112-.073-.21v-1.363h.21v1.285m.592-.884h.21v1.202h-.21v-1.202m-.044-.287c0-.035.014-.067.042-.095a.143.143 0 0 1 .108-.04c.044 0 .08.013.11.04a.13.13 0 0 1 .043.096.123.123 0 0 1-.043.093.16.16 0 0 1-.11.04.147.147 0 0 1-.108-.04.126.126 0 0 1-.042-.094m.71-.114h.21v.55h.024a.323.323 0 0 1 .15-.136.496.496 0 0 1 .21-.045c.165 0 .292.052.378.153.086.102.13.255.13.46 0 .208-.058.368-.17.478-.113.11-.272.166-.476.166-.1 0-.192-.01-.274-.025a.64.64 0 0 1-.182-.06v-1.538m.563.547a.326.326 0 0 0-.23.086.506.506 0 0 0-.124.198v.57a.76.76 0 0 0 .275.042.38.38 0 0 0 .288-.11c.07-.075.107-.194.107-.357a.717.717 0 0 0-.02-.172.39.39 0 0 0-.056-.136.29.29 0 0 0-.097-.09.283.283 0 0 0-.14-.034m1.504.053a1.247 1.247 0 0 0-.075-.02.29.29 0 0 0-.07-.01c-.08 0-.143.02-.188.063a.267.267 0 0 0-.084.156v.814h-.21v-1.202h.146l.04.16h.02a.43.43 0 0 1 .124-.14.296.296 0 0 1 .175-.048c.02 0 .046.002.075.006.03.004.058 0 .087.02l-.04.202m.228-.124c.138-.066.308-.1.51-.1.093 0 .167.013.222.037.056.023.1.054.13.09.03.037.05.078.06.122.002.045.016.09.016.134 0 .085-.003.17-.01.254-.005.085-.008.177-.008.276 0 .058.003.114.008.168a.935.935 0 0 0 .026.15h-.153l-.056-.183h-.023a.636.636 0 0 1-.06.07.404.404 0 0 1-.088.063.56.56 0 0 1-.266.064.49.49 0 0 1-.156-.024.374.374 0 0 1-.123-.067.324.324 0 0 1-.11-.248c0-.068.014-.127.044-.178a.383.383 0 0 1 .117-.124.5.5 0 0 1 .16-.07.74.74 0 0 1 .18-.024 2.234 2.234 0 0 1 .203.008l.056.007.04.007c.004-.023.007-.043.008-.06.002-.017.002-.038.002-.064a.368.368 0 0 0-.014-.108.153.153 0 0 0-.044-.07.204.204 0 0 0-.084-.038.586.586 0 0 0-.224-.005.97.97 0 0 0-.302.09l-.057-.176m.718.582l-.04-.007a.473.473 0 0 0-.05-.006l-.074-.005a1.507 1.507 0 0 0-.104-.004.432.432 0 0 0-.226.05c-.056.035-.084.092-.084.173 0 .06.022.106.065.136.043.03.1.046.168.046a.42.42 0 0 0 .235-.067.284.284 0 0 0 .11-.134V21.1m1.256-.458a1.247 1.247 0 0 0-.076-.02.29.29 0 0 0-.07-.01c-.08 0-.143.02-.188.062a.267.267 0 0 0-.084.156v.815h-.21V20.44h.146l.04.16h.022a.43.43 0 0 1 .123-.138.294.294 0 0 1 .175-.05c.02 0 .046.003.076.007.03.003.058 0 .087.02l-.04.2m.615.562l.07.23h.03l.058-.233.25-.76h.215l-.394 1.09-.09.217a1.21 1.21 0 0 1-.097.187.543.543 0 0 1-.12.13.24.24 0 0 1-.15.05.508.508 0 0 1-.155-.02l.034-.18c.023.008.046.01.07.01.03 0 .057-.003.083-.01a.18.18 0 0 0 .07-.04.28.28 0 0 0 .058-.085.733.733 0 0 0 .05-.14l-.54-1.21h.25l.308.76" fill="url(#b)" fill-rule="nonzero"/><path fill="#fdb813" d="M2.193 12.96L5 15.863l1.773-4.35z"/><path fill="#faa61a" d="M6.99 21.663l2.684-.362 2.256-1.09L5 15.862l.632 2.9z"/><path fill="#f36f21" d="M18.59 21.663l-2.08-2.9-2.807-2.9-1.773 4.347 3.546 1.09z"/><path fill="#fff200" d="M.112 10.06l1.72 2.9L5 15.863z" id="d"/><path fill="#fff200" d="M6.99 21.663L5 15.863l.27 2.9z"/><path fill="#f4813c" d="M6.99 21.663h2.9l2.04-1.453z"/><path fill="#f7941e" d="M18.59 21.663l-6.66-1.453 3.76 1.453z"/><g fill="#f15922"><path d="M18.59 21.663l-1.718-2.9-3.17-2.9zM13.702 15.862l-.08-.873z"/></g><path d="M4.998 15.86l-3.223-3.02L0 9.885c.6-1.207 2.19-2.047 3.312-2.162-2.893 2.826 1.37 3.83 2.96 1.767.72-.934-.224-1.908-1.813-.535C5.6 5.885 8.907 7.75 9.34 6.088c.214-.827-1.02-.763-1.79-.198-.078-1.19.347-1.272 1.17-2.3C6.428.89 11.202-.494 12.778.56 10.584 1.994 14.372 5.084 14.766 0c1.762 2.253.805 4.524.294 5.486l-.11.098c-.337-.03-.728-.003-1.08.025-.25-.54-.75-1.1-1.213-1.286l-.386-.155-.237.342c-.53.764-.58 1.502-.912 2.312a2.53 2.53 0 0 1-.09.198c-.772 1.547-1.9 3.11-2.958 4.476a50.428 50.428 0 0 1-2.527 3.03l-.548 1.337" fill="url(#c)"/><use xlink:href="#d"/></svg>