<svg xmlns="http://www.w3.org/2000/svg" width="704" height="262" viewBox="0 0 87.6735 32.6186" shape-rendering="geometricPrecision" image-rendering="optimizeQuality" fill-rule="evenodd" clip-rule="evenodd"><defs><linearGradient id="a" gradientUnits="userSpaceOnUse" x1="12.784" y1="27.311" x2="23.498" y2="9.515"><stop stop-color="#f7941e"/><stop offset=".6" stop-color="#fb4a0f"/><stop offset="1" stop-color="red"/></linearGradient><linearGradient id="c" gradientUnits="userSpaceOnUse" x1="4.886" y1="19.02" x2="19.442" y2="3.596"><stop stop-color="#fdb813"/><stop offset="1" stop-color="#ff0"/></linearGradient><linearGradient id="b" gradientUnits="userSpaceOnUse" x1="45.991" y1="22.507" x2="36.18" y2="20.294"><stop/><stop offset="1" stop-color="#c00000"/></linearGradient></defs><path d="M20.17 23.347l-.287-2.443c.883.168 1.763.842 2.528 1.174.77.332 1.42.324 1.84.748 1.21 1.206 1.89.644 3.18-.15 1.497-.92.886-1.887.655-3.14-.146-.804-2.37-3.358-2.64-4.485-.272-1.114.528-1.552-.49-2.67-.12-.13 1.072.08.962-1.21a.43.43 0 0 1-.57.11c.236-.2.42-.753-.046-1.05-.46 1.08-1.64.44-1.756.3.14-.287.68-1.314.475-3.165-.6.788-1.22 1.114-1.748 1.672-.57-.136-1.692-.014-2.384.035-.1-.676-.906-1.74-1.537-1.994-.79 1.138-.852 2.466-1.42 3.6-1.95 3.9-6.5 9.534-9.56 12.672l3.793 6.405h12.81l-3.796-6.404" fill="url(#a)"/><g fill-rule="nonzero"><path d="M74.26 31.24l.105.34h.044l.08-.343.37-1.116h.315l-.58 1.606c-.043.11-.086.217-.13.32a1.725 1.725 0 0 1-.145.275.762.762 0 0 1-.174.19.36.36 0 0 1-.22.07c-.09 0-.167 0-.23-.03l.05-.26a.32.32 0 0 0 .1.017.43.43 0 0 0 .124-.017.25.25 0 0 0 .104-.06.42.42 0 0 0 .086-.125c.028-.053.05-.12.075-.204l-.792-1.78h.367l.45 1.12m-.906-.823a1.32 1.32 0 0 0-.11-.03.418.418 0 0 0-.102-.013c-.12 0-.212.03-.278.092a.392.392 0 0 0-.123.23v1.2h-.31v-1.77h.22l.06.235h.03a.647.647 0 0 1 .18-.203.44.44 0 0 1 .26-.073.82.82 0 0 1 .24.038l-.063.3m-1.85.673c-.02-.002-.038-.006-.058 0a.173.173 0 0 0-.077 0l-.11-.01a2.234 2.234 0 0 0-.15-.003.65.65 0 0 0-.333.073c-.083.05-.124.135-.124.254 0 .09.032.156.096.2a.42.42 0 0 0 .246.066.607.607 0 0 0 .346-.1.398.398 0 0 0 .1-.094.475.475 0 0 0 .06-.103v-.27m-1.055-.857c.2-.097.45-.145.75-.145a.85.85 0 0 1 .323.052c.082.035.146.08.19.133a.412.412 0 0 1 .09.18.95.95 0 0 1 .022.196c0 .123-.005.247-.013.372a5.1 5.1 0 0 0-.014.403c0 .086.002.168.01.248.01.08.02.156.04.22h-.227l-.083-.27h-.033a.91.91 0 0 1-.09.106.593.593 0 0 1-.13.092.803.803 0 0 1-.62.057.54.54 0 0 1-.18-.1.466.466 0 0 1-.163-.364c0-.1.023-.19.067-.263a.56.56 0 0 1 .17-.18.733.733 0 0 1 .24-.105 1.04 1.04 0 0 1 .264-.034 3.165 3.165 0 0 1 .3.013c.032.003.06.007.082 0l.06.01a.218.218 0 0 0 .002-.088 1.21 1.21 0 0 0 .003-.095.543.543 0 0 0-.02-.157.215.215 0 0 0-.064-.103.275.275 0 0 0-.123-.054.925.925 0 0 0-.19-.016h-.14a1.406 1.406 0 0 0-.31.072c-.05.018-.096.037-.136.057l-.084-.26m-.337.182a1.32 1.32 0 0 0-.11-.03.412.412 0 0 0-.102-.013c-.12 0-.21.03-.277.09a.392.392 0 0 0-.123.23v1.2h-.31v-1.77h.216l.06.236h.03a.647.647 0 0 1 .18-.204.44.44 0 0 1 .26-.073.82.82 0 0 1 .235.038l-.06.297m-2.215-.078a.488.488 0 0 0-.337.127.602.602 0 0 0-.11.135.756.756 0 0 0-.072.152v.84c.11.044.246.065.403.065.177 0 .32-.055.422-.164.105-.11.157-.283.157-.523 0-.09-.01-.175-.028-.25a.594.594 0 0 0-.084-.2.407.407 0 0 0-.35-.183m-.828-.807h.31v.81h.034a.474.474 0 0 1 .22-.2.734.734 0 0 1 .307-.066c.246 0 .43.076.56.225.126.15.19.374.19.675 0 .31-.084.544-.25.706-.166.16-.4.243-.7.243-.15 0-.284-.013-.404-.037a.935.935 0 0 1-.268-.087v-2.27m-1.045.17c0-.053.02-.1.06-.14a.208.208 0 0 1 .16-.063.22.22 0 0 1 .16.062.19.19 0 0 1 .064.14.18.18 0 0 1-.063.134.232.232 0 0 1-.16.058.218.218 0 0 1-.16-.06.183.183 0 0 1-.06-.136m.064.42h.31v1.77h-.31v-1.77m-.87 1.3c0 .094.02.16.054.197a.182.182 0 0 0 .14.057.722.722 0 0 0 .226-.033l.04.23a.61.61 0 0 1-.082.024 2.06 2.06 0 0 1-.096.024c-.033.006-.067.01-.1.014a1.036 1.036 0 0 1-.092.005.428.428 0 0 1-.29-.094c-.07-.06-.107-.166-.107-.31v-2.01h.31v1.89m-1.76-.65h.898v.29h-.897v-.29m-.707.623a.195.195 0 0 0-.032-.113.28.28 0 0 0-.085-.077.603.603 0 0 0-.126-.056l-.15-.048a6.175 6.175 0 0 1-.197-.06.617.617 0 0 1-.178-.09.447.447 0 0 1-.13-.142.44.44 0 0 1-.05-.224c0-.176.05-.307.155-.39.107-.087.253-.13.44-.13a1.366 1.366 0 0 1 .613.128l-.073.263a1.924 1.924 0 0 0-.216-.085.876.876 0 0 0-.278-.042.45.45 0 0 0-.246.055c-.054.036-.08.1-.08.196 0 .04 0 .07.03.097a.3.3 0 0 0 .08.067c.035.02.074.036.12.05.044.015.09.03.14.043.068.018.135.04.202.063a.75.75 0 0 1 .185.095.46.46 0 0 1 .138.15c.035.06.052.137.052.23 0 .165-.056.3-.17.405-.11.104-.28.156-.505.156a1.4 1.4 0 0 1-.643-.146l.085-.27c.062.032.143.066.242.1.1.033.2.05.3.05.11 0 .2-.02.27-.06.072-.038.107-.112.107-.22m-1.683 0a.195.195 0 0 0-.03-.113.27.27 0 0 0-.087-.076.603.603 0 0 0-.126-.053l-.15-.047a5.45 5.45 0 0 1-.196-.06.636.636 0 0 1-.18-.087.447.447 0 0 1-.13-.143.44.44 0 0 1-.05-.223c0-.175.053-.306.158-.39.105-.086.25-.13.44-.13.14 0 .26.014.357.042.097.024.18.053.253.084l-.073.263a1.85 1.85 0 0 0-.217-.087.876.876 0 0 0-.278-.04.45.45 0 0 0-.246.054c-.054.036-.08.1-.08.196 0 .04 0 .07.03.097a.27.27 0 0 0 .08.068c.034.02.073.036.118.05.045.015.092.03.14.043.07.017.136.04.203.062a.74.74 0 0 1 .186.094c.055.04.1.09.135.15s.052.137.052.23c0 .165-.057.3-.17.405-.11.103-.28.155-.506.155a1.4 1.4 0 0 1-.642-.145l.09-.27c.062.033.143.067.242.1.1.034.2.05.3.05.11 0 .2-.02.27-.06.073-.037.108-.11.108-.22m-2.784-.387c0 .083.01.165.03.245.02.08.05.15.093.213a.5.5 0 0 0 .164.155c.07.038.15.057.25.057.35 0 .526-.222.526-.667 0-.087 0-.172-.03-.253a.635.635 0 0 0-.09-.215.474.474 0 0 0-.408-.207c-.175 0-.308.057-.4.168-.09.11-.135.28-.135.507m-.33 0c0-.146.02-.277.058-.393a.787.787 0 0 1 .17-.296.716.716 0 0 1 .27-.185.975.975 0 0 1 .368-.063.94.94 0 0 1 .377.07.738.738 0 0 1 .27.198.82.82 0 0 1 .16.297c.034.115.05.24.05.374 0 .144-.02.273-.06.388a.83.83 0 0 1-.17.294.718.718 0 0 1-.27.186.967.967 0 0 1-.36.063.957.957 0 0 1-.385-.07.74.74 0 0 1-.427-.49 1.247 1.247 0 0 1-.052-.37m-.26-.593a1.32 1.32 0 0 0-.11-.03.412.412 0 0 0-.102-.013c-.12 0-.21.03-.277.09a.392.392 0 0 0-.122.23v1.2h-.31v-1.77h.216l.06.236h.03a.647.647 0 0 1 .18-.204.44.44 0 0 1 .26-.074.82.82 0 0 1 .24.038l-.06.297M56.31 31.76a.842.842 0 0 1-.276.126 1.3 1.3 0 0 1-.333.042.973.973 0 0 1-.38-.067.643.643 0 0 1-.25-.19.763.763 0 0 1-.14-.292 1.557 1.557 0 0 1-.046-.38c0-.3.072-.53.218-.694.146-.16.354-.24.626-.24a1.28 1.28 0 0 1 .547.11l-.08.253a.938.938 0 0 0-.427-.1c-.37 0-.552.226-.552.675 0 .085 0 .167.03.247.02.08.054.15.1.21a.5.5 0 0 0 .177.15.574.574 0 0 0 .268.057.72.72 0 0 0 .25-.038.667.667 0 0 0 .177-.094l.1.226m-2.742-.997h.897v.29h-.897v-.29m-.82 1.12v-.98c0-.19-.03-.332-.09-.426-.06-.095-.17-.143-.325-.143a.55.55 0 0 0-.343.106.554.554 0 0 0-.19.27v1.167h-.31v-1.77h.216l.06.236h.03a.792.792 0 0 1 .63-.283c.103 0 .194.012.273.035a.41.41 0 0 1 .2.125c.05.06.09.14.12.24.025.1.04.225.04.378v1.043h-.31m-2.068-1.065c.004-.18-.032-.31-.11-.383a.45.45 0 0 0-.325-.11.58.58 0 0 0-.375.11c-.092.073-.146.2-.162.38h.97m.235.92a.962.962 0 0 1-.292.14 1.324 1.324 0 0 1-.38.052 1.03 1.03 0 0 1-.386-.065.678.678 0 0 1-.268-.187.783.783 0 0 1-.156-.293 1.353 1.353 0 0 1-.05-.384c0-.3.075-.532.224-.693.15-.16.363-.24.64-.24a.84.84 0 0 1 .262.028c.088.02.166.055.236.108a.58.58 0 0 1 .17.22.84.84 0 0 1 .066.36 1.97 1.97 0 0 1-.017.264H49.7c.004.206.054.362.15.47.092.104.253.156.48.156a.747.747 0 0 0 .47-.165l.117.237m-2.77-1.41a.464.464 0 0 0-.316.1.588.588 0 0 0-.164.31v.816a.66.66 0 0 0 .167.083c.06.02.138.03.233.03.18 0 .324-.06.427-.18.103-.117.155-.295.155-.53a.813.813 0 0 0-.117-.46c-.075-.114-.205-.17-.386-.17m-.792-.21h.21l.06.225h.03a.638.638 0 0 1 .235-.204.725.725 0 0 1 .328-.07c.256 0 .447.07.573.213.126.14.19.37.19.682 0 .148-.022.283-.064.403a.782.782 0 0 1-.46.5.984.984 0 0 1-.374.067 1.51 1.51 0 0 1-.12-.005.633.633 0 0 1-.105-.017 1.45 1.45 0 0 1-.094-.026c-.03 0-.062-.023-.096-.036v.71h-.31v-2.45m-1.89.886c0 .083.008.165.028.245.02.08.05.15.094.216a.5.5 0 0 0 .165.153.5.5 0 0 0 .25.056c.35 0 .525-.223.525-.668 0-.087 0-.172-.03-.253a.635.635 0 0 0-.09-.215.474.474 0 0 0-.407-.208c-.175 0-.308.057-.4.168-.09.11-.135.28-.135.507m-.33 0c0-.146.02-.277.057-.393a.787.787 0 0 1 .167-.295.716.716 0 0 1 .27-.187.975.975 0 0 1 .366-.065.94.94 0 0 1 .378.07.738.738 0 0 1 .27.197.82.82 0 0 1 .16.297c.036.113.053.238.053.372 0 .144-.02.273-.06.388a.83.83 0 0 1-.168.293.718.718 0 0 1-.27.186.967.967 0 0 1-.363.064.957.957 0 0 1-.383-.07.732.732 0 0 1-.27-.196.798.798 0 0 1-.16-.295 1.247 1.247 0 0 1-.05-.37m36.76-5.09h.904l2.954-10.08h1.93L84.37 26.52a37.752 37.752 0 0 0-.538 1.893 8.875 8.875 0 0 1-.774 1.99 4.764 4.764 0 0 1-1.358 1.573c-.572.43-1.32.643-2.24.643-.206 0-.424-.027-.654-.07a6.515 6.515 0 0 1-.68-.18 4.405 4.405 0 0 1-.62-.25 1.696 1.696 0 0 1-.428-.29l.667-1.715c.095.08.226.16.393.238.167.08.35.147.548.203.2.055.393.103.584.143.19.04.35.06.477.06 1.19 0 2-1.01 2.43-3.03H80.57l-5-11.913h2.143l4.17 10.08M63.347 19.99a23.77 23.77 0 0 0-.107-2.002 8.483 8.483 0 0 0-.083-.62H61.56V15.82h3.193l.215 1.93h.12a3.99 3.99 0 0 1 .63-.798c.262-.264.568-.5.917-.717a4.838 4.838 0 0 1 2.525-.703c.73 0 1.378.08 1.942.24.564.158 1.032.44 1.406.845.373.405.655.953.845 1.644.19.69.286 1.57.286 2.63v6.84h-1.86v-6.48c0-1.32-.217-2.31-.646-2.98-.43-.665-1.207-1-2.335-1a3.02 3.02 0 0 0-1.203.25c-.39.168-.743.387-1.06.657-.318.27-.597.584-.835.94a3.952 3.952 0 0 0-.524 1.133v7.48h-1.835v-7.744m-13.17 1.784c0 .557.067 1.113.202 1.67a4.57 4.57 0 0 0 .655 1.5 3.42 3.42 0 0 0 1.18 1.072c.485.27 1.076.405 1.775.405 1.27 0 2.227-.393 2.87-1.18.645-.785.966-1.94.966-3.465 0-.572-.062-1.132-.2-1.68a4.434 4.434 0 0 0-.664-1.49 3.52 3.52 0 0 0-1.19-1.07c-.486-.27-1.077-.406-1.776-.406-1.27 0-2.225.388-2.86 1.166-.635.778-.953 1.938-.953 3.48m-1.977 0c0-1.923.5-3.443 1.5-4.563 1-1.12 2.43-1.68 4.29-1.68 1 0 1.86.16 2.583.49a5.08 5.08 0 0 1 1.8 1.32 5.37 5.37 0 0 1 1.06 1.98c.23.76.345 1.58.345 2.45 0 .952-.127 1.813-.382 2.584-.254.77-.627 1.427-1.12 1.967a4.95 4.95 0 0 1-1.822 1.25c-.722.296-1.543.443-2.465.443-.988 0-1.845-.163-2.576-.49a5.067 5.067 0 0 1-1.81-1.32 5.38 5.38 0 0 1-1.06-1.978 8.458 8.458 0 0 1-.346-2.454"/><path d="M43.43 30.82c.004-.18-.032-.306-.11-.38a.45.45 0 0 0-.325-.11.58.58 0 0 0-.374.11c-.09.074-.14.2-.16.38h.97m.237.92a.962.962 0 0 1-.293.14 1.324 1.324 0 0 1-.38.053 1.03 1.03 0 0 1-.386-.066.678.678 0 0 1-.268-.187.798.798 0 0 1-.156-.293 1.353 1.353 0 0 1-.05-.384c0-.304.076-.535.225-.696.15-.16.36-.24.64-.24a.84.84 0 0 1 .26.028.572.572 0 0 1 .406.326.84.84 0 0 1 .066.36 1.97 1.97 0 0 1-.018.27H42.45c.003.206.053.362.147.47.094.104.255.156.482.156a.747.747 0 0 0 .47-.165l.113.236M40.8 30.98l-.638-.862h.394l.344.452.118.24.138-.24.357-.452h.35l-.643.85.344.458c.117.155.23.31.344.462h-.384l-.388-.502-.135-.253-.133.253-.39.502h-.358l.683-.907m-1.416.11c-.018-.003-.037-.007-.057 0a.173.173 0 0 0-.077-.003l-.107-.007a2.234 2.234 0 0 0-.153-.005.65.65 0 0 0-.334.074c-.084.05-.125.132-.125.25 0 .09.032.158.096.2a.42.42 0 0 0 .247.07.596.596 0 0 0 .345-.1.398.398 0 0 0 .1-.094.475.475 0 0 0 .06-.103v-.27m-1.054-.854c.202-.098.452-.146.75-.146.135 0 .244.02.325.053.082.035.146.08.19.133a.412.412 0 0 1 .09.18.95.95 0 0 1 .022.197c0 .124-.005.248-.013.373a5.125 5.125 0 0 0-.003.655c.01.08.02.153.04.22h-.23l-.084-.27h-.032a.91.91 0 0 1-.09.103.593.593 0 0 1-.13.093.803.803 0 0 1-.62.06.54.54 0 0 1-.18-.1.454.454 0 0 1-.12-.155.483.483 0 0 1-.043-.207c0-.1.023-.188.067-.262a.56.56 0 0 1 .17-.18.742.742 0 0 1 .24-.105 1.04 1.04 0 0 1 .265-.034 3.184 3.184 0 0 1 .298.013c.035.002.06.006.085 0l.06.01a.218.218 0 0 0 0-.09 1.21 1.21 0 0 0 .004-.093.543.543 0 0 0-.02-.157.215.215 0 0 0-.068-.105.27.27 0 0 0-.123-.055.925.925 0 0 0-.19-.016c-.042 0-.09.003-.14 0a1.406 1.406 0 0 0-.31.075 1.06 1.06 0 0 0-.135.054l-.084-.26m-.912.604h-1.2v1.055h-.338v-2.36h.337v1.01h1.197v-1.01h.337v2.36h-.336v-1.06m2.54-18.247c-.414 0-.81.007-1.192.023-.38.016-.683.055-.905.12v6.91c.08.03.208.05.38.06l.55.022c.19.008.374.012.55.012h.38a8.44 8.44 0 0 0 1.61-.155 4.156 4.156 0 0 0 1.44-.56c.43-.27.774-.65 1.035-1.144.262-.49.393-1.12.393-1.88 0-.65-.123-1.195-.37-1.632a2.94 2.94 0 0 0-.977-1.048 4.108 4.108 0 0 0-1.37-.56 7.123 7.123 0 0 0-1.524-.168m-4.074-1.36a12.073 12.073 0 0 1 1.955-.286c.7-.048 1.39-.07 2.073-.07.73 0 1.473.07 2.227.214a6.046 6.046 0 0 1 2.06.785 4.42 4.42 0 0 1 1.514 1.573c.39.667.582 1.516.582 2.55 0 1.015-.18 1.873-.546 2.572-.365.7-.85 1.266-1.453 1.703a5.893 5.893 0 0 1-2.072.94 9.996 9.996 0 0 1-2.404.287h-.392a14.234 14.234 0 0 1-1.156-.048 4.112 4.112 0 0 1-.406-.05v6.338h-1.98V11.23" fill="url(#b)"/></g><path fill="#fdb813" d="M3.23 19.08l4.13 4.267 2.61-6.404z"/><path fill="#faa61a" d="M10.286 31.886l3.954-.534 3.32-1.6-10.2-6.405.93 4.27z"/><path fill="#f36f21" d="M27.364 31.886l-3.064-4.27-4.13-4.27-2.61 6.405 5.22 1.606z"/><path d="M.165 14.808l2.53 4.272 4.665 4.267zm10.12 17.078l-2.925-8.54.396 4.27z" fill="#fff200"/><path fill="#f4813c" d="M10.286 31.886h4.27l3-2.135z"/><path fill="#f7941e" d="M27.364 31.886L17.56 29.75l5.53 2.136z"/><path d="M27.364 31.886l-2.53-4.27-4.664-4.27zm-7.194-8.54l-.12-1.286z" fill="#f15922"/><path d="M7.357 23.344l-4.743-4.446L0 14.548c.886-1.776 3.226-3.01 4.876-3.18-4.257 4.158 2.02 5.638 4.356 2.6 1.06-1.375-.33-2.808-2.67-.787 1.68-4.513 6.55-1.77 7.184-4.214.316-1.218-1.5-1.123-2.63-.292-.117-1.75.508-1.872 1.72-3.383C9.46 1.31 16.488-.723 18.806.83 15.58 2.936 21.153 7.484 21.733 0c2.594 3.317 1.185 6.66.432 8.07-.055.048-.11.096-.163.145-.495-.043-1.07-.005-1.588.037-.37-.794-1.104-1.617-1.785-1.893l-.57-.23-.35.5c-.78 1.123-.857 2.21-1.34 3.4-.04.1-.088.198-.136.293-1.138 2.277-2.8 4.576-4.355 6.588a74.296 74.296 0 0 1-3.72 4.457l-.806 1.97" fill="url(#c)"/><path fill="#fff200" d="M.165 14.808l2.53 4.272 4.665 4.266z"/></svg>